<svg width="48" height="48" viewBox="0 0 48 48" fill="none" xmlns="http://www.w3.org/2000/svg">
<g clip-path="url(#clip0_1835_40661)">
<path d="M11.6794 10.2218L12.5476 9.7257C12.3314 9.34729 11.895 9.15251 11.4689 9.24423L11.6794 10.2218ZM17.3509 20.1471L17.9509 20.9471C18.3544 20.6445 18.4694 20.0889 18.2192 19.651L17.3509 20.1471ZM14.0983 22.5866L13.4983 21.7866C13.0884 22.094 12.9772 22.6617 13.2408 23.1011L14.0983 22.5866ZM25.412 33.9003L24.8976 34.7578C25.337 35.0214 25.9046 34.9102 26.212 34.5003L25.412 33.9003ZM27.8515 30.6477L28.3476 29.7794C27.9098 29.5292 27.3541 29.6442 27.0515 30.0477L27.8515 30.6477ZM37.7768 36.3193L38.7544 36.5297C38.8461 36.1037 38.6513 35.6673 38.2729 35.451L37.7768 36.3193ZM11.4689 9.24423C9.50847 9.66627 7.74202 10.5581 6.33369 11.9665L7.7479 13.3807C8.85296 12.2756 10.2602 11.5503 11.8898 11.1994L11.4689 9.24423ZM18.2192 19.651L12.5476 9.7257L10.8111 10.718L16.4827 20.6433L18.2192 19.651ZM14.6983 23.3866L17.9509 20.9471L16.7509 19.3471L13.4983 21.7866L14.6983 23.3866ZM19.7552 28.2434C18.3944 26.8827 17.1928 25.3398 16.3263 24.1267C15.8946 23.5224 15.5497 23.0049 15.3136 22.6399C15.1955 22.4576 15.1049 22.3135 15.0443 22.2161C15.014 22.1674 14.9913 22.1303 14.9764 22.106C14.969 22.0938 14.9635 22.0848 14.9601 22.0791C14.9584 22.0763 14.9571 22.0742 14.9564 22.0731C14.9561 22.0725 14.9558 22.0721 14.9557 22.0719C14.9557 22.0719 14.9557 22.0718 14.9557 22.0719C14.9557 22.0719 14.9557 22.0719 14.9557 22.0719C14.9558 22.072 14.9558 22.0721 14.0983 22.5866C13.2408 23.1011 13.2409 23.1012 13.241 23.1013C13.241 23.1014 13.2411 23.1015 13.2412 23.1016C13.2413 23.1019 13.2415 23.1022 13.2417 23.1025C13.2421 23.1032 13.2427 23.1041 13.2433 23.1052C13.2447 23.1075 13.2466 23.1106 13.2489 23.1145C13.2537 23.1224 13.2605 23.1336 13.2693 23.148C13.2869 23.1768 13.3125 23.2185 13.3457 23.272C13.4122 23.3789 13.5094 23.5332 13.6344 23.7265C13.8844 24.1128 14.2466 24.656 14.6988 25.2891C15.6001 26.5509 16.8733 28.19 18.341 29.6576L19.7552 28.2434ZM25.412 33.9003C25.9265 33.0428 25.9266 33.0428 25.9267 33.0429C25.9267 33.0429 25.9268 33.0429 25.9268 33.0429C25.9268 33.0429 25.9268 33.0429 25.9267 33.0429C25.9265 33.0428 25.9261 33.0426 25.9256 33.0422C25.9244 33.0415 25.9224 33.0403 25.9195 33.0386C25.9138 33.0351 25.9048 33.0296 25.8927 33.0222C25.8683 33.0074 25.8313 32.9846 25.7825 32.9543C25.6851 32.8938 25.5411 32.8031 25.3587 32.6851C24.9937 32.4489 24.4763 32.104 23.872 31.6723C22.6588 30.8058 21.116 29.6042 19.7552 28.2434L18.341 29.6576C19.8086 31.1253 21.4478 32.3986 22.7095 33.2998C23.3426 33.752 23.8858 34.1142 24.2722 34.3642C24.4654 34.4893 24.6197 34.5864 24.7267 34.6529C24.7802 34.6861 24.8218 34.7117 24.8506 34.7293C24.8651 34.7381 24.8763 34.7449 24.8841 34.7497C24.8881 34.7521 24.8911 34.7539 24.8934 34.7553C24.8945 34.756 24.8954 34.7565 24.8961 34.7569C24.8965 34.7571 24.8968 34.7573 24.897 34.7574C24.8971 34.7575 24.8973 34.7576 24.8973 34.7576C24.8974 34.7577 24.8976 34.7578 25.412 33.9003ZM27.0515 30.0477L24.612 33.3003L26.212 34.5003L28.6515 31.2477L27.0515 30.0477ZM38.2729 35.451L28.3476 29.7794L27.3554 31.5159L37.2807 37.1875L38.2729 35.451ZM36.0322 41.6649C37.4405 40.2566 38.3324 38.4902 38.7544 36.5297L36.7992 36.1088C36.4484 37.7385 35.723 39.1457 34.618 40.2507L36.0322 41.6649ZM12.6841 35.3146C16.6573 39.2878 21.0052 42.2549 25.0801 43.5646C29.1697 44.879 33.142 44.5551 36.0322 41.6649L34.618 40.2507C32.4388 42.4299 29.3494 42.836 25.692 41.6605C22.0199 40.4803 17.9355 37.7376 14.0983 33.9004L12.6841 35.3146ZM6.33369 11.9665C3.44351 14.8566 3.11961 18.8289 4.43402 22.9186C5.74369 26.9935 8.71079 31.3413 12.6841 35.3146L14.0983 33.9004C10.261 30.0631 7.5183 25.9787 6.33809 22.3066C5.16261 18.6492 5.56878 15.5598 7.7479 13.3807L6.33369 11.9665Z" fill="#020814"/>
<path d="M28.3238 23.5469L28.8109 22.6736C28.5943 22.5528 28.3406 22.5168 28.0989 22.5725L28.3238 23.5469ZM24.4531 19.6762L25.4275 19.9011C25.4833 19.6595 25.4473 19.4057 25.3265 19.1892L24.4531 19.6762ZM23.2919 24.7081L22.3175 24.4833C22.24 24.8192 22.341 25.1714 22.5848 25.4152C22.8286 25.659 23.1808 25.7601 23.5168 25.6825L23.2919 24.7081ZM39.5554 21.1726C36.6456 24.0824 32.2369 24.5843 28.8109 22.6736L27.8367 24.4203C32.0229 26.755 37.4109 26.1454 40.9696 22.5868L39.5554 21.1726ZM39.5554 8.44468C43.0701 11.9594 43.0701 17.6579 39.5554 21.1726L40.9696 22.5868C45.2653 18.291 45.2653 11.3262 40.9696 7.03046L39.5554 8.44468ZM26.8274 8.44468C30.3422 4.92996 36.0406 4.92996 39.5554 8.44468L40.9696 7.03046C36.6738 2.7347 29.709 2.7347 25.4132 7.03046L26.8274 8.44468ZM25.3265 19.1892C23.4158 15.7632 23.9177 11.3544 26.8274 8.44468L25.4132 7.03046C21.8546 10.5891 21.2451 15.9771 23.5798 20.1633L25.3265 19.1892ZM23.4787 19.4514L22.3175 24.4833L24.2663 24.933L25.4275 19.9011L23.4787 19.4514ZM23.5168 25.6825L28.5487 24.5213L28.0989 22.5725L23.0671 23.7337L23.5168 25.6825Z" fill="#020814"/>
<path d="M33.1914 9.15137V14.8082L36.7269 18.3438" stroke="#1664FF" stroke-width="2"/>
</g>
<defs>
<clipPath id="clip0_1835_40661">
<rect width="48" height="48" fill="white"/>
</clipPath>
</defs>
</svg>
