<svg width="48" height="48" viewBox="0 0 48 48" fill="none" xmlns="http://www.w3.org/2000/svg">
<path d="M24.1635 14.3016L14.5604 4.71398C14.1698 4.32399 13.5371 4.32425 13.1468 4.71455L5.04316 12.8182C4.65275 13.2086 4.65261 13.8415 5.04286 14.2321L14.25 23.4469M33.6969 23.835L43.2844 33.438C43.6744 33.8286 43.6742 34.4613 43.2839 34.8516L35.18 42.9555C34.7897 43.3458 34.1569 43.3461 33.7663 42.9561L24.1637 33.3688" stroke="#020814" stroke-width="2"/>
<line x1="7.59367" y1="16.7831" x2="10.766" y2="13.6108" stroke="#020814" stroke-width="2"/>
<line x1="10.7655" y1="19.9555" x2="13.9379" y2="16.7832" stroke="#020814" stroke-width="2"/>
<line x1="31.3866" y1="40.5761" x2="34.559" y2="37.4038" stroke="#020814" stroke-width="2"/>
<line x1="28.2148" y1="37.4042" x2="31.3871" y2="34.2319" stroke="#020814" stroke-width="2"/>
<line x1="29.3009" y1="9.18157" x2="38.8178" y2="18.6985" stroke="#1664FF" stroke-width="2"/>
<path d="M33.4374 5.04304C33.8279 4.65252 34.4611 4.65252 34.8516 5.04304L42.9544 13.1458C43.3449 13.5363 43.3449 14.1695 42.9544 14.56L15.868 41.6464C15.6805 41.8339 15.4262 41.9393 15.1609 41.9393L7.05817 41.9393C6.50589 41.9393 6.05817 41.4916 6.05817 40.9393L6.05817 32.8365C6.05817 32.5713 6.16353 32.3169 6.35106 32.1294L33.4374 5.04304Z" stroke="#020814" stroke-width="2"/>
<path d="M11.0312 37.0449L16.0619 32.0143" stroke="#1664FF" stroke-width="2"/>
</svg>
