<svg width="48" height="48" viewBox="0 0 48 48" fill="none" xmlns="http://www.w3.org/2000/svg">
<path d="M11 36V36C11 39.866 14.134 43 18 43H25" stroke="#1664FF" stroke-width="2"/>
<path d="M41 29V22C41 12.6112 33.3888 5 24 5V5C14.6112 5 7 12.6112 7 22V29" stroke="#020814" stroke-width="2"/>
<path d="M7 22H13C14.1046 22 15 22.8954 15 24V34C15 35.1046 14.1046 36 13 36H9C7.89543 36 7 35.1046 7 34V22Z" stroke="#020814" stroke-width="2"/>
<path d="M41 22H35C33.8954 22 33 22.8954 33 24V34C33 35.1046 33.8954 36 35 36H39C40.1046 36 41 35.1046 41 34V22Z" stroke="#020814" stroke-width="2"/>
</svg>
